<?xml version="1.0" encoding="UTF-8" standalone="no"?>
<!-- Created with Inkscape (http://www.inkscape.org/) -->

<svg
   xmlns:osb="http://www.openswatchbook.org/uri/2009/osb"
   xmlns:dc="http://purl.org/dc/elements/1.1/"
   xmlns:cc="http://creativecommons.org/ns#"
   xmlns:rdf="http://www.w3.org/1999/02/22-rdf-syntax-ns#"
   xmlns:svg="http://www.w3.org/2000/svg"
   xmlns="http://www.w3.org/2000/svg"
   xmlns:sodipodi="http://sodipodi.sourceforge.net/DTD/sodipodi-0.dtd"
   xmlns:inkscape="http://www.inkscape.org/namespaces/inkscape"
   width="500"
   height="500"
   viewBox="0 0 499.99998 499.99998"
   id="svg2"
   version="1.1"
   inkscape:version="0.91 r13725"
   sodipodi:docname="icon.svg"
   inkscape:export-filename="C:\Users\Owner\Documents\ThreadsRepo\ThreadsMobile\Assets\Sprites\icon_export.png"
   inkscape:export-xdpi="90"
   inkscape:export-ydpi="90">
  <defs
     id="defs4">
    <linearGradient
       id="linearGradient5591"
       osb:paint="solid">
      <stop
         style="stop-color:#000000;stop-opacity:1;"
         offset="0"
         id="stop5593" />
    </linearGradient>
  </defs>
  <sodipodi:namedview
     id="base"
     pagecolor="#ffffff"
     bordercolor="#666666"
     borderopacity="1.0"
     inkscape:pageopacity="0.0"
     inkscape:pageshadow="2"
     inkscape:zoom="0.98994949"
     inkscape:cx="333.26"
     inkscape:cy="234.49645"
     inkscape:document-units="px"
     inkscape:current-layer="layer2"
     showgrid="false"
     units="px"
     inkscape:showpageshadow="false"
     inkscape:window-width="1366"
     inkscape:window-height="706"
     inkscape:window-x="-8"
     inkscape:window-y="-8"
     inkscape:window-maximized="1" />
  <metadata
     id="metadata7">
    <rdf:RDF>
      <cc:Work
         rdf:about="">
        <dc:format>image/svg+xml</dc:format>
        <dc:type
           rdf:resource="http://purl.org/dc/dcmitype/StillImage" />
        <dc:title></dc:title>
      </cc:Work>
    </rdf:RDF>
  </metadata>
  <g
     inkscape:groupmode="layer"
     id="layer2"
     inkscape:label="Layer 2">
    <rect
       style="opacity:1;fill:#d084ff;fill-opacity:1;stroke:#ffffff;stroke-width:0;stroke-miterlimit:4;stroke-dasharray:none;stroke-opacity:1"
       id="rect5762"
       width="557.60413"
       height="539.42139"
       x="-29.29442"
       y="-16.187948" />
  </g>
  <g
     inkscape:groupmode="layer"
     id="layer3"
     inkscape:label="Layer 3">
    <path
       style="fill:none;fill-rule:evenodd;stroke:#ffffff;stroke-width:24.99999702;stroke-linecap:butt;stroke-linejoin:miter;stroke-opacity:1;stroke-miterlimit:4;stroke-dasharray:none"
       d="M 107.07616,113.11157 374.76655,169.6801"
       id="path5765"
       inkscape:connector-curvature="0" />
    <path
       style="fill:none;fill-rule:evenodd;stroke:#ffffff;stroke-width:24.99999619;stroke-linecap:butt;stroke-linejoin:miter;stroke-miterlimit:4;stroke-dasharray:none;stroke-opacity:1"
       d="M 142.42065,332.43312 368.71649,178.653"
       id="path5765-6"
       inkscape:connector-curvature="0" />
    <path
       style="fill:none;fill-rule:evenodd;stroke:#ffffff;stroke-width:24.99999619;stroke-linecap:butt;stroke-linejoin:miter;stroke-miterlimit:4;stroke-dasharray:none;stroke-opacity:1"
       d="m 372.39424,149.04814 -1.3163,273.59897"
       id="path5765-0"
       inkscape:connector-curvature="0" />
    <path
       style="fill:none;fill-rule:evenodd;stroke:#ffffff;stroke-width:24.99999619;stroke-linecap:butt;stroke-linejoin:miter;stroke-miterlimit:4;stroke-dasharray:none;stroke-opacity:1"
       d="M 122.48162,317.92095 381.4688,406.14653"
       id="path5765-3"
       inkscape:connector-curvature="0"
       inkscape:transform-center-x="-9.5386351"
       inkscape:transform-center-y="21.637885" />
  </g>
  <g
     inkscape:label="Layer 1"
     inkscape:groupmode="layer"
     id="layer1"
     transform="translate(0,-552.36209)">
    <path
       style="fill:#252525;fill-opacity:1"
       d="m 96.189548,745.46381 c -13.26758,-1.80937 -25.80443,-6.98176 -36.94682,-15.24334 -8.69142,-6.44429 -19.99706,-19.12436 -18.57702,-20.8354 2.70926,-3.26446 22.26987,-17.76394 23.96455,-17.76394 0.30408,0 1.48882,1.35895 2.63275,3.01989 2.90291,4.2149 9.40329,10.23383 14.00479,12.96753 8.30537,4.93413 16.12113,7.21329 24.736032,7.21329 3.59192,0 4.71357,0.17138 4.51908,0.6905 -0.30042,0.80191 0.46403,21.56725 0.99647,27.06749 l 0.36094,3.72869 -5.16574,-0.0569 c -2.84116,-0.0313 -7.577432,-0.38581 -10.525032,-0.78779 z m 46.702432,-10.06515 c -3.99508,-5.40388 -15.49976,-24.32418 -15.00468,-24.67629 0.0971,-0.0691 1.66811,-0.95046 3.49102,-1.95859 10.70418,-5.91977 18.72976,-15.56478 22.72459,-27.31008 0.7176,-2.10981 1.30472,-4.3094 1.30472,-4.88796 0,-1.19751 -1.00411,-1.3114 11.60035,1.31584 18.96026,3.95202 18.78241,3.90046 18.7734,5.44247 -0.0143,2.4519 -4.37445,14.46542 -7.19337,19.82003 -6.77061,12.8609 -16.83138,23.58992 -29.36939,31.32012 -2.18875,1.34946 -4.25496,2.45356 -4.59157,2.45356 -0.33661,0 -1.11739,-0.6836 -1.73507,-1.5191 z M 97.405848,696.13509 c -10.4908,-3.7998 -18.9299,-13.09041 -21.0153,-23.13577 -1.05552,-5.08439 -0.40483,-14.60975 1.28112,-18.75415 3.906,-9.60174 13.18811,-17.53134 22.875742,-19.54249 5.02567,-1.04332 14.05593,-0.40706 18.22148,1.28387 21.72743,8.81985 27.64115,35.8461 11.39788,52.08937 -3.96854,3.96854 -7.8428,6.34128 -13.49085,8.26231 -5.80649,1.97492 -13.48004,1.89402 -19.270072,-0.20314 z m -68.56033,-11.83323 c -0.0346,-0.076 -0.14136,-0.75955 -0.23714,-1.5191 -0.0958,-0.75955 -0.43844,-2.99676 -0.76144,-4.97158 -0.7545,-4.61296 -0.75878,-19.10549 -0.007,-23.73913 0.31915,-1.96713 0.62828,-3.62461 0.68696,-3.68329 0.0587,-0.0587 3.08935,0.5949 6.73482,1.45239 12.86872,3.027 21.73257,4.97891 22.6098,4.97891 0.62753,0 0.81297,0.36409 0.63303,1.2429 -0.96626,4.71908 -0.7758,11.43006 0.5291,18.64343 0.19505,1.07819 0.14593,1.65129 -0.11105,1.29564 -0.33573,-0.46463 -4.3592,0.31768 -14.82315,2.88217 -14.19253,3.4783 -15.13043,3.68844 -15.25393,3.41766 z M 155.69507,655.87393 c -1.49784,-9.98835 -9.11409,-22.22277 -18.05932,-29.00975 -10.52745,-7.98744 -19.54501,-10.79102 -32.84011,-10.21004 -8.304652,0.3629 -11.910762,1.23414 -18.713952,4.52131 -8.38198,4.05001 -15.42228,10.18328 -20.2687,17.65739 -1.16979,1.80405 -2.2087,3.3619 -2.30869,3.46188 -0.1,0.1 -3.63695,-1.47251 -7.85993,-3.49444 -4.22297,-2.02192 -10.47303,-4.97211 -13.88902,-6.55598 l -6.21088,-2.87976 2.63154,-4.37846 c 10.06425,-16.74536 25.41866,-29.09379 43.82895,-35.24843 8.47724,-2.83397 14.00504,-3.62452 25.344052,-3.62452 11.33901,0 16.86681,0.79055 25.34405,3.62452 11.95141,3.99541 22.4964,10.50421 31.27674,19.30527 11.20292,11.22938 18.47468,24.37108 21.85186,39.49117 1.397,6.25459 1.42816,6.07638 -1.06254,6.07638 -2.0954,0 -15.36476,1.68102 -21.89412,2.77363 -7.59234,1.2705 -6.72556,1.45307 -7.16993,-1.51017 z"
       id="path5726"
       inkscape:connector-curvature="0" />
    <path
       style="fill:#252525;fill-opacity:1"
       d="m 360.02022,804.47218 c -13.26758,-1.80937 -25.80443,-6.98176 -36.94681,-15.24334 -8.69142,-6.44429 -19.99706,-19.12435 -18.57702,-20.83539 2.70926,-3.26446 22.26987,-17.76394 23.96455,-17.76394 0.30408,0 1.48881,1.35895 2.63274,3.01989 2.90291,4.2149 9.40329,10.23383 14.00479,12.96753 8.30537,4.93412 16.12113,7.21328 24.73603,7.21328 3.59192,0 4.71357,0.17138 4.51908,0.6905 -0.30042,0.80191 0.46403,21.56725 0.99647,27.06749 l 0.36094,3.72869 -5.16574,-0.0569 c -2.84116,-0.0313 -7.57743,-0.38581 -10.52503,-0.78779 z m 46.70243,-10.06515 c -3.99508,-5.40388 -15.49976,-24.32417 -15.00468,-24.67628 0.0971,-0.0691 1.66811,-0.95046 3.49102,-1.95859 10.70418,-5.91977 18.72976,-15.56478 22.72458,-27.31008 0.7176,-2.10981 1.30472,-4.3094 1.30472,-4.88796 0,-1.19751 -1.00411,-1.3114 11.60035,1.31584 18.96026,3.95202 18.78241,3.90046 18.7734,5.44247 -0.0143,2.4519 -4.37445,14.46542 -7.19337,19.82003 -6.77061,12.86089 -16.83138,23.58991 -29.36938,31.32011 -2.18875,1.34946 -4.25496,2.45356 -4.59157,2.45356 -0.33661,0 -1.11739,-0.6836 -1.73507,-1.5191 z m -45.48613,-39.26356 c -10.4908,-3.7998 -18.9299,-13.09041 -21.0153,-23.13577 -1.05552,-5.08439 -0.40483,-14.60975 1.28112,-18.75415 3.906,-9.60174 13.18811,-17.53134 22.87574,-19.54249 5.02567,-1.04332 14.05593,-0.40706 18.22148,1.28387 21.72743,8.81985 27.64115,35.8461 11.39788,52.08937 -3.96854,3.96854 -7.8428,6.34128 -13.49085,8.26231 -5.80649,1.97492 -13.48004,1.89402 -19.27007,-0.20314 z M 292.6762,743.31024 c -0.0346,-0.076 -0.14136,-0.75955 -0.23714,-1.5191 -0.0958,-0.75955 -0.43844,-2.99676 -0.76144,-4.97158 -0.7545,-4.61296 -0.75878,-19.10549 -0.007,-23.73913 0.31915,-1.96713 0.62828,-3.62461 0.68696,-3.68329 0.0587,-0.0587 3.08935,0.5949 6.73482,1.45239 12.86872,3.027 21.73257,4.97891 22.6098,4.97891 0.62753,0 0.81297,0.36409 0.63303,1.2429 -0.96626,4.71908 -0.7758,11.43006 0.5291,18.64343 0.19505,1.07819 0.14593,1.65129 -0.11105,1.29564 -0.33573,-0.46463 -4.3592,0.31768 -14.82315,2.88217 -14.19253,3.4783 -15.13043,3.68844 -15.25393,3.41766 z m 126.84953,-28.42793 c -1.49784,-9.98835 -9.11408,-22.22277 -18.05931,-29.00974 -10.52745,-7.98744 -19.54501,-10.79102 -32.84011,-10.21004 -8.30465,0.3629 -11.91076,1.23414 -18.71395,4.52131 -8.38198,4.05001 -15.42228,10.18327 -20.2687,17.65738 -1.16978,1.80405 -2.20869,3.3619 -2.30868,3.46188 -0.1,0.1 -3.63695,-1.47251 -7.85993,-3.49444 -4.22297,-2.02192 -10.47303,-4.97211 -13.88902,-6.55598 l -6.21088,-2.87976 2.63154,-4.37845 c 10.06425,-16.74536 25.41866,-29.09379 43.82894,-35.24843 8.47724,-2.83397 14.00504,-3.62452 25.34405,-3.62452 11.33901,0 16.86681,0.79055 25.34405,3.62452 11.95141,3.99541 22.49639,10.50421 31.27673,19.30527 11.20292,11.22938 18.47468,24.37107 21.85186,39.49116 1.397,6.25459 1.42816,6.07638 -1.06254,6.07638 -2.0954,0 -15.36476,1.68102 -21.89412,2.77363 -7.59234,1.2705 -6.72556,1.45307 -7.16993,-1.51017 z"
       id="path5726-1"
       inkscape:connector-curvature="0" />
    <path
       style="fill:#252525;fill-opacity:1"
       d="m 136.30596,955.90074 c -13.26758,-1.80937 -25.80442,-6.98176 -36.946806,-15.24334 -8.69142,-6.44429 -19.99706,-19.12435 -18.57702,-20.83539 2.70926,-3.26446 22.269866,-17.76394 23.964546,-17.76394 0.30408,0 1.48882,1.35895 2.63275,3.01989 2.90291,4.2149 9.40328,10.23383 14.00478,12.96753 8.30537,4.93412 16.12113,7.21328 24.73603,7.21328 3.59192,0 4.71357,0.17138 4.51908,0.6905 -0.30042,0.80191 0.46403,21.56725 0.99647,27.06749 l 0.36094,3.72869 -5.16574,-0.0569 c -2.84116,-0.0313 -7.57743,-0.38581 -10.52503,-0.78779 z m 46.70243,-10.06515 c -3.99508,-5.40388 -15.49976,-24.32417 -15.00468,-24.67628 0.0971,-0.0691 1.66811,-0.95046 3.49102,-1.95859 10.70418,-5.91977 18.72976,-15.56478 22.72458,-27.31008 0.7176,-2.10981 1.30472,-4.3094 1.30472,-4.88796 0,-1.19751 -1.00411,-1.3114 11.60035,1.31584 18.96026,3.95202 18.78241,3.90046 18.7734,5.44247 -0.0143,2.4519 -4.37445,14.46542 -7.19337,19.82003 -6.77061,12.86089 -16.83138,23.58991 -29.36938,31.32011 -2.18875,1.34946 -4.25496,2.45356 -4.59157,2.45356 -0.33661,0 -1.11739,-0.6836 -1.73507,-1.5191 z m -45.48613,-39.26356 c -10.4908,-3.7998 -18.9299,-13.09041 -21.0153,-23.13577 -1.05552,-5.08439 -0.40483,-14.60975 1.28112,-18.75415 3.906,-9.60174 13.18811,-17.53134 22.87574,-19.54249 5.02567,-1.04332 14.05593,-0.40706 18.22148,1.28387 21.72743,8.81985 27.64115,35.8461 11.39788,52.08937 -3.96854,3.96854 -7.8428,6.34128 -13.49085,8.26231 -5.80649,1.97492 -13.48004,1.89402 -19.27007,-0.20314 z M 68.961944,894.7388 c -0.0346,-0.076 -0.14136,-0.75955 -0.23714,-1.5191 -0.0958,-0.75955 -0.43844,-2.99676 -0.76144,-4.97158 -0.7545,-4.61296 -0.75878,-19.10549 -0.007,-23.73913 0.31915,-1.96713 0.62828,-3.62461 0.68696,-3.68329 0.0587,-0.0587 3.08935,0.5949 6.73482,1.45239 12.86872,3.027 21.73257,4.97891 22.6098,4.97891 0.62753,0 0.81297,0.36409 0.63303,1.2429 -0.96626,4.71908 -0.7758,11.43006 0.5291,18.64343 0.19505,1.07819 0.14593,1.65129 -0.11105,1.29564 -0.33573,-0.46463 -4.3592,0.31768 -14.82315,2.88217 -14.19253,3.4783 -15.13043,3.68844 -15.25393,3.41766 z M 195.81147,866.31087 c -1.49784,-9.98835 -9.11408,-22.22277 -18.05931,-29.00974 -10.52745,-7.98744 -19.54501,-10.79102 -32.84011,-10.21004 -8.30465,0.3629 -11.91076,1.23414 -18.71395,4.52131 -8.38198,4.05001 -15.42227,10.18327 -20.26869,17.65738 -1.16979,1.80405 -2.2087,3.3619 -2.30869,3.46188 -0.1,0.1 -3.636946,-1.47251 -7.859926,-3.49444 -4.22297,-2.02192 -10.47303,-4.97211 -13.88902,-6.55598 l -6.21088,-2.87976 2.63154,-4.37845 c 10.06425,-16.74536 25.418656,-29.09379 43.828936,-35.24843 8.47724,-2.83397 14.00504,-3.62452 25.34405,-3.62452 11.33901,0 16.86681,0.79055 25.34405,3.62452 11.95141,3.99541 22.49639,10.50421 31.27673,19.30527 11.20292,11.22938 18.47468,24.37107 21.85186,39.49116 1.397,6.25459 1.42816,6.07638 -1.06254,6.07638 -2.0954,0 -15.36476,1.68102 -21.89412,2.77363 -7.59234,1.2705 -6.72556,1.45307 -7.16993,-1.51017 z"
       id="path5726-7"
       inkscape:connector-curvature="0"
       inkscape:transform-center-x="588.57141"
       inkscape:transform-center-y="-417.14284" />
    <path
       style="fill:#252525;fill-opacity:1"
       d="m 359.16309,1034.4722 c -13.26758,-1.8094 -25.80443,-6.9818 -36.94682,-15.2434 -8.69142,-6.4443 -19.99706,-19.1243 -18.57702,-20.83541 2.70926,-3.26441 22.26987,-17.76389 23.96455,-17.76389 0.30408,0 1.48882,1.35895 2.63275,3.01989 2.90291,4.2149 9.40329,10.23383 14.00479,12.9675 8.30537,4.93411 16.12113,7.21331 24.73603,7.21331 3.59192,0 4.71357,0.1714 4.51908,0.6905 -0.30042,0.8019 0.46403,21.5673 0.99647,27.0675 l 0.36094,3.7287 -5.16574,-0.057 c -2.84116,-0.031 -7.57743,-0.3858 -10.52503,-0.7878 z m 46.70242,-10.0652 c -3.99508,-5.4039 -15.49976,-24.3241 -15.00468,-24.67631 0.0971,-0.069 1.66811,-0.9504 3.49102,-1.9585 10.70418,-5.91981 18.72976,-15.56482 22.72458,-27.31012 0.7176,-2.10981 1.30472,-4.3094 1.30472,-4.88796 0,-1.19751 -1.00411,-1.3114 11.60035,1.31584 18.96026,3.95202 18.78241,3.90046 18.7734,5.44247 -0.0143,2.4519 -4.37445,14.46542 -7.19337,19.82003 -6.77061,12.86085 -16.83138,23.58995 -29.36938,31.32015 -2.18875,1.3494 -4.25496,2.4535 -4.59157,2.4535 -0.33661,0 -1.11739,-0.6836 -1.73507,-1.5191 z m -45.48612,-39.26354 c -10.4908,-3.7998 -18.9299,-13.09041 -21.0153,-23.13577 -1.05552,-5.08439 -0.40483,-14.60975 1.28112,-18.75415 3.906,-9.60174 13.18811,-17.53134 22.87574,-19.54249 5.02567,-1.04332 14.05593,-0.40706 18.22148,1.28387 21.72742,8.81985 27.64114,35.8461 11.39787,52.08937 -3.96854,3.96854 -7.84279,6.34128 -13.49084,8.26231 -5.80649,1.97492 -13.48004,1.89402 -19.27007,-0.20314 z m -68.56033,-11.83323 c -0.0346,-0.076 -0.14136,-0.75955 -0.23714,-1.5191 -0.0958,-0.75955 -0.43844,-2.99676 -0.76144,-4.97158 -0.7545,-4.61296 -0.75878,-19.10549 -0.007,-23.73913 0.31915,-1.96713 0.62828,-3.62461 0.68696,-3.68329 0.0587,-0.0587 3.08935,0.5949 6.73482,1.45239 12.86872,3.027 21.73257,4.97891 22.6098,4.97891 0.62753,0 0.81297,0.36409 0.63303,1.2429 -0.96626,4.71908 -0.7758,11.43006 0.5291,18.64343 0.19505,1.07819 0.14593,1.65129 -0.11105,1.29564 -0.33573,-0.46463 -4.3592,0.31768 -14.82315,2.88217 -14.19253,3.4783 -15.13043,3.68844 -15.25393,3.41766 z M 418.66859,944.8823 c -1.49784,-9.98835 -9.11408,-22.22277 -18.05931,-29.00974 -10.52745,-7.98744 -19.545,-10.79102 -32.8401,-10.21004 -8.30465,0.3629 -11.91076,1.23414 -18.71395,4.52131 -8.38198,4.05001 -15.42228,10.18327 -20.2687,17.65738 -1.16979,1.80405 -2.2087,3.3619 -2.30869,3.46188 -0.1,0.1 -3.63695,-1.47251 -7.85993,-3.49444 -4.22297,-2.02192 -10.47303,-4.97211 -13.88902,-6.55598 l -6.21088,-2.87976 2.63154,-4.37845 c 10.06425,-16.74536 25.41866,-29.09379 43.82895,-35.24843 8.47724,-2.83397 14.00504,-3.62452 25.34405,-3.62452 11.33901,0 16.8668,0.79055 25.34404,3.62452 11.95141,3.99541 22.49639,10.50421 31.27673,19.30527 11.20292,11.22938 18.47468,24.37107 21.85186,39.49116 1.397,6.25459 1.42816,6.07638 -1.06254,6.07638 -2.0954,0 -15.36476,1.68102 -21.89412,2.77363 -7.59234,1.2705 -6.72556,1.45307 -7.16993,-1.51017 z"
       id="path5726-10"
       inkscape:connector-curvature="0"
       inkscape:transform-center-y="2.8571425" />
  </g>
</svg>
